# xmcd
#
# Track frame offsets: 
#        150
#        5985
#        21941
#        34616
#        56542
#        70672
#        84898
#        102864
#        118859
#        131974
#        157307
#        179004
#        198882
#        206713
#        221251
#
# Disc length: 3177 seconds
#
# Revision: 0
# Processed by: cddbd v1.5.2PL0 Copyright (c) Steve Scherf et al.
# Submitted via: ExactAudioCopy v0.95a5
#
DISCID=d90c670f
DTITLE=Glimmer of Light - Taxi Chain
DYEAR=2008
DGENRE=Blues
TTITLE0=Jack's New Air
TTITLE1=Black Hounds
TTITLE2=Soak Yourself In It
TTITLE3=Where Does the Love Go?
TTITLE4=Poisson
TTITLE5=Robbie Robertson
TTITLE6=Something Else
TTITLE7=Rice and Peas
TTITLE8=The Earl's Chair
TTITLE9=Nobody Shakes Like You
TTITLE10=Twister
TTITLE11=Trouble
TTITLE12=Lament for the Children
TTITLE13=Jack's New Reel
TTITLE14=How Can I Say Goodbye?
EXTD=
EXTT0=
EXTT1=
EXTT2=
EXTT3=
EXTT4=
EXTT5=
EXTT6=
EXTT7=
EXTT8=
EXTT9=
EXTT10=
EXTT11=
EXTT12=
EXTT13=
EXTT14=
PLAYORDER=
